<svg xmlns="http://www.w3.org/2000/svg" width="1200" height="630" viewBox="0 0 1200 630" role="img" aria-labelledby="title desc">
  <title id="title">GitHub Spam Account Blocker</title>
  <desc id="desc">Analyze GitHub followers and following accounts, review detection reasons, and block selected spam profiles.</desc>
  <defs>
    <linearGradient id="bg" x1="0" y1="0" x2="1" y2="1">
      <stop offset="0%" stop-color="#0f172a" />
      <stop offset="50%" stop-color="#111a30" />
      <stop offset="100%" stop-color="#090d17" />
    </linearGradient>
    <linearGradient id="accent" x1="0" y1="0" x2="1" y2="0">
      <stop offset="0%" stop-color="#38bdf8" />
      <stop offset="100%" stop-color="#67e8f9" />
    </linearGradient>
  </defs>
  <rect width="1200" height="630" fill="url(#bg)" rx="30" />
  <circle cx="140" cy="130" r="70" fill="#1f2d4a" />
  <circle cx="1060" cy="500" r="95" fill="#1a2945" />
  <rect x="120" y="95" width="960" height="440" rx="34" fill="#111a30" stroke="#2d4a7a" stroke-width="4" />
  <rect x="160" y="135" width="420" height="14" rx="7" fill="#2a3d63" />
  <rect x="160" y="165" width="530" height="14" rx="7" fill="#2a3d63" />
  <rect x="160" y="195" width="390" height="14" rx="7" fill="#2a3d63" />
  <rect x="160" y="255" width="880" height="52" rx="12" fill="#0d1529" stroke="#375891" stroke-width="3" />
  <rect x="180" y="274" width="260" height="14" rx="7" fill="#506f9f" />
  <rect x="780" y="270" width="220" height="22" rx="11" fill="url(#accent)" />
  <rect x="160" y="326" width="880" height="52" rx="12" fill="#0d1529" stroke="#375891" stroke-width="3" />
  <rect x="180" y="345" width="320" height="14" rx="7" fill="#506f9f" />
  <rect x="780" y="341" width="220" height="22" rx="11" fill="#4ade80" />
  <rect x="160" y="397" width="880" height="52" rx="12" fill="#0d1529" stroke="#375891" stroke-width="3" />
  <rect x="180" y="416" width="360" height="14" rx="7" fill="#506f9f" />
  <rect x="780" y="412" width="220" height="22" rx="11" fill="#f59e0b" />
  <text x="160" y="515" fill="#f8fbff" font-family="'Nunito Sans', sans-serif" font-size="48" font-weight="700">GitHub Spam Account Blocker</text>
  <text x="160" y="555" fill="#b7c8e9" font-family="'Nunito Sans', sans-serif" font-size="26">Analyze, review, and block suspicious accounts in your browser.</text>
</svg>
